<svg xmlns="http://www.w3.org/2000/svg" width="592" height="512pt" viewBox="0 0 444 512"><g fill-rule="evenodd"><path d="M1.11 305.254H0v-98.508h1.11l85.214-50.926 85.18 50.926h1.125v98.508h-1.125L86.309 356.18zm54.972-32.102l29.68 17.715 29.68-17.715h.39v-34.304h-.39l-29.68-17.715-29.68 17.715h-.41v34.304zm34.137-123.714h-1.13V50.91h1.13L175.414 0l85.195 50.91h1.114v98.528h-1.114l-85.21 50.906zm54.933-32.122l29.68 17.73 29.68-17.73h.41V83.031h-.39l-29.665-17.719-29.695 17.72h-.395v34.3h.395zM90.22 461.09h-1.13v-98.527h1.13l85.195-50.907 85.195 50.906h1.114v98.528h-1.114L175.38 512 90.2 461.09zm54.933-32.121l29.68 17.719 29.68-17.72h.41v-34.3h-.39l-29.68-17.715-29.68 17.73h-.395v34.286h.395zm126.028 32.12h-1.11v-98.526h1.11l85.215-50.907 85.199 50.906h1.11v98.528h-1.11L356.379 512zm54.972-32.12l29.68 17.719 29.68-17.72h.394v-34.3h-.394l-29.68-17.715-29.68 17.73h-.394v34.286zm0 0" fill="#4ad2a9"/><path d="M235.766 273.152h-.395v-34.304h.395l29.68-17.715 29.679 17.715h.39v34.304h-.39l-29.68 17.715zm0 0" fill="#7b46b2"/><path d="M271.18 149.438h-1.11V50.91h1.11L356.395 0l85.199 50.91h1.11v98.528h-1.11l-85.215 50.906zm55.52-32.122l29.695 17.73 29.68-17.73h.374V83.031h-.375l-29.68-17.719-29.714 17.72h-.375v34.3h.375zm0 0" fill="#4ad2a9"/></g></svg>