<svg width="508" height="70" xmlns="http://www.w3.org/2000/svg"><g fill="none" fill-rule="evenodd"><path d="M11.52 47.01C5.337 47.01.325 52.022.325 58.206c0 6.179 5.012 11.19 11.193 11.19 6.184 0 11.196-5.011 11.196-11.19 0-6.184-5.012-11.196-11.196-11.196M145.852 2.232c-6.184 0-11.196 5.012-11.196 11.196 0 8.93-1.426 11.194-11.194 11.194a5.03 5.03 0 0 0-1.026.103c-5.693.526-10.17 5.259-10.17 11.09 0 .09.026.17.029.256-.033 8.686-1.532 10.91-11.192 10.91-.483 0-.87.058-1.207.148-5.622.596-10.017 5.296-10.017 11.076 0 6.181 5.012 11.193 11.196 11.193 5.902 0 10.686-4.584 11.112-10.378a3.29 3.29 0 0 0 .11-.846c0-8.065 2.534-11.125 10.935-11.186.078.002.153.02.23.02 5.933 0 10.74-4.628 11.121-10.467a3.34 3.34 0 0 0 .073-.726c0-8.152 2.579-11.193 11.196-11.193 6.181 0 11.193-5.014 11.193-11.194 0-6.184-5.012-11.196-11.193-11.196M79.733 24.728a5.09 5.09 0 0 0-1.034-.106c-9.77 0-11.196-2.264-11.196-11.196l-.014.014.003-.014c0-6.181-5.012-11.193-11.196-11.193-6.182 0-11.194 5.012-11.194 11.193 0 .04.012.075.012.113-.012 8.833-1.468 11.083-11.194 11.083h-.011l-.024.002a5.123 5.123 0 0 0-.98.1c-5.704.513-10.19 5.253-10.19 11.092 0 6.184 5.01 11.193 11.194 11.193 5.913 0 10.707-4.6 11.116-10.409.054-.23.091-.481.091-.784 0-8.152 2.577-11.194 11.194-11.194l-.003-.002h.003v.002c8.577 0 11.167 3.018 11.19 11.09 0 .036-.008.068-.008.104 0 6.184 5.012 11.193 11.193 11.193 6.184 0 11.194-5.01 11.194-11.193 0-5.825-4.463-10.553-10.146-11.088" fill="#4A90E2"/><path d="M473.15 64.292c-15.929 0-28.888-12.96-28.888-28.888s12.96-28.888 28.888-28.888 28.888 12.96 28.888 28.888-12.96 28.888-28.888 28.888zm0-63.413c-19.036 0-34.525 15.49-34.525 34.525 0 19.038 15.49 34.525 34.525 34.525 19.035 0 34.525-15.487 34.525-34.525 0-19.036-15.49-34.525-34.525-34.525zm-57.027 1.903c-.815 0-1.47.281-1.97.843-.5.563-.75 1.284-.75 2.158v53.762L372.4 4.188c-.625-.937-1.44-1.406-2.44-1.406-.938 0-1.673.281-2.206.843-.533.563-.796 1.284-.796 2.158v61.083c0 .937.218 1.675.655 2.205.44.531 1.127.797 2.065.797.812 0 1.47-.28 1.97-.844.5-.563.752-1.282.752-2.158V13.007l41.098 55.454c.75.94 1.593 1.407 2.532 1.407.876 0 1.564-.28 2.064-.844.5-.563.752-1.282.752-2.158V5.783c0-.94-.237-1.672-.705-2.205-.47-.531-1.141-.796-2.017-.796zm-159.037 0c-.815 0-1.47.281-1.97.843-.5.563-.75 1.284-.75 2.158v53.762L213.362 4.188c-.625-.937-1.44-1.406-2.438-1.406-.94 0-1.675.281-2.208.843-.53.563-.796 1.284-.796 2.158v61.083c0 .937.218 1.675.657 2.205.437.531 1.125.797 2.065.797.81 0 1.468-.28 1.968-.844.5-.563.752-1.282.752-2.158V13.007l41.098 55.454c.75.94 1.592 1.407 2.532 1.407.876 0 1.564-.28 2.064-.844.5-.563.752-1.282.752-2.158V5.783c0-.94-.237-1.672-.705-2.205-.47-.531-1.141-.796-2.017-.796zm40.347 43.912l16.043-36.312 15.952 36.312h-31.995zM316.572 4.75a3.101 3.101 0 0 0-1.266-1.499 3.538 3.538 0 0 0-1.924-.563c-1.5 0-2.531.688-3.097 2.062l-27.397 61.552c-.125.252-.188.595-.188 1.034 0 .749.265 1.36.798 1.827.531.47 1.172.705 1.922.705 1.188 0 2.064-.595 2.628-1.783l7.226-16.325h36.406l7.13 16.325a3.007 3.007 0 0 0 1.079 1.315c.47.313.953.468 1.454.468.751 0 1.409-.235 1.97-.705.564-.467.846-1.045.846-1.733 0-.376-.094-.752-.282-1.128L316.572 4.75z" fill="#000034"/></g></svg>