<svg xmlns="http://www.w3.org/2000/svg" width="512pt" height="252" viewBox="0 0 512 189"><g fill-rule="evenodd"><path d="M236.324 133.613c-25.43 0-40.387-17.68-40.387-38.453 0-20.773 14.958-38.453 40.387-38.453 9.836 0 16.988 2.77 22.867 6.816.961.637 1.176 1.387.645 2.454l-.645 1.168c-.53 1.066-1.39 1.28-2.351.636-5.559-3.62-12.07-5.965-20.516-5.965-21.902 0-34.62 15.235-34.62 33.344 0 18.106 12.718 33.34 34.62 33.34 8.446 0 14.957-2.344 20.516-5.965.965-.64 1.82-.426 2.351.637l.75 1.281c.426.953.317 1.7-.32 2.129-6.195 4.262-13.144 7.031-23.297 7.031zm33.813-1.175c-1.29 0-1.926-.743-1.39-2.02l28.741-71.156c.313-.953 1.075-1.383 2.137-1.383h3.953c.961 0 1.707.43 2.031 1.383l28.852 71.156c.426 1.277-.106 2.02-1.39 2.02h-2.243c-.96 0-1.707-.418-2.031-1.383l-6.192-15.23h-42.109l-6.09 15.23c-.426.965-1.07 1.382-2.136 1.382h-2.137zm12.18-21.407h38.574l-19.34-48.043zm69.601 21.406c-1.074 0-1.707-.632-1.707-1.804V59.687c0-1.175.633-1.808 1.707-1.808h2.031c1.074 0 1.813.633 1.813 1.809v70.945c0 1.172-.64 1.804-1.817 1.804zm78.469 1.176c-16.989 0-22.328-21.414-23.075-31.316H385.93v28.336c0 1.062-.64 1.804-1.817 1.804h-2.027c-1.074 0-1.82-.632-1.82-1.804V59.687c0-1.175.644-1.808 1.82-1.808h28.316c13.465 0 21.368 10.441 21.368 22.367 0 11.402-7.051 20.879-19.125 21.836.64 9.164 5.664 26.629 17.953 26.629 2.027 0 4.484-.531 6.406-1.703.969-.426 1.82-.426 2.351.637l.645.964c.426 1.067.316 1.809-.535 2.446-2.781 1.812-6.305 2.558-9.086 2.558zm-44.45-36.004h23.618c10.257 0 16.453-7.668 16.453-17.363 0-9.691-6.195-17.578-16.453-17.578H385.93v34.941zm69.813 34.829c-1.066 0-1.707-.633-1.707-1.805V59.687c0-1.175.64-1.808 1.707-1.808h1.39c.962 0 1.708.312 2.247 1.062l46.91 63.594V59.688c0-1.176.637-1.81 1.812-1.81h2.145c1.066 0 1.707.634 1.707 1.81v70.945c0 1.172-.64 1.804-1.707 1.804h-1.5a2.489 2.489 0 0 1-2.137-1.062l-47.015-63.7v62.954c0 1.066-.641 1.809-1.817 1.809zm0 0" fill="#343a40"/><path d="M.41 112.695H0v-36.37h.41l31.54-18.798 31.527 18.797h.418v36.371h-.418L31.94 131.492zm20.348-11.855l10.984 6.543 10.985-6.543h.144V88.18h-.144l-10.985-6.543-10.984 6.543h-.153v12.66zM33.39 55.168h-.418V18.793h.418L64.926 0l31.531 18.793h.41v36.375h-.41L64.918 73.961zm20.332-11.86L64.71 49.86l10.98-6.55h.153V30.652h-.145l-10.976-6.539-10.993 6.54h-.144v12.663h.144zM33.39 170.228h-.418v-36.375h.418l31.535-18.793 31.531 18.793h.41v36.375h-.41L64.91 189.02l-31.527-18.793zm20.332-11.86l10.988 6.54 10.98-6.54h.153v-12.664h-.145l-10.984-6.543-10.985 6.55h-.144v12.657h.144zm46.648 11.86h-.41v-36.375h.41l31.54-18.793 31.53 18.793h.41v36.375h-.41l-31.539 18.793zm20.344-11.86l10.984 6.54 10.988-6.54h.145v-12.664h-.144l-10.989-6.543-10.984 6.55h-.145v12.657zm0 0" fill="#4ad2a9"/><path d="M87.262 100.84h-.145V88.18h.145l10.984-6.543 10.984 6.543h.145v12.66h-.145l-10.984 6.543zm0 0" fill="#7b46b2"/><path d="M100.371 55.168h-.41V18.793h.41L131.911 0l31.53 18.793h.41v36.375h-.41l-31.539 18.793zm20.547-11.86l10.992 6.551 10.985-6.55h.14V30.652h-.14l-10.985-6.539-11 6.54h-.137v12.663h.137zm0 0" fill="#4ad2a9"/></g></svg>