<svg xmlns="http://www.w3.org/2000/svg" width="512pt" height="190pt" viewBox="0 0 512 190"><g fill-rule="evenodd"><path d="M236.34 134.305c-25.426 0-40.39-17.77-40.39-38.653C195.95 74.77 210.913 57 236.34 57c9.836 0 16.992 2.785 22.87 6.852.962.64 1.177 1.394.645 2.464l-.644 1.18c-.531 1.07-1.39 1.285-2.352.637-5.554-3.64-12.074-5.996-20.52-5.996-21.898 0-34.616 15.312-34.616 33.515 0 18.203 12.718 33.516 34.617 33.516 8.445 0 14.965-2.356 20.52-5.996.968-.649 1.82-.434 2.35.637l.755 1.289c.422.96.316 1.707-.324 2.14-6.196 4.285-13.149 7.067-23.301 7.067zm33.82-1.18c-1.289 0-1.93-.746-1.39-2.031l28.742-71.524c.312-.96 1.074-1.39 2.133-1.39h3.957c.96 0 1.707.43 2.03 1.39l28.856 71.524c.422 1.285-.11 2.031-1.39 2.031h-2.246c-.961 0-1.707-.422-2.028-1.39l-6.195-15.31h-42.11l-6.093 15.31c-.422.968-1.067 1.39-2.137 1.39h-2.137zm12.18-21.52h38.578l-19.344-48.293zm69.605 21.52c-1.074 0-1.707-.637-1.707-1.816V59.996c0-1.18.633-1.816 1.707-1.816h2.032c1.074 0 1.812.636 1.812 1.816v71.313c0 1.18-.637 1.816-1.812 1.816zm78.477 1.18c-16.992 0-22.332-21.52-23.078-31.477H385.96v28.48c0 1.07-.64 1.817-1.816 1.817h-2.028c-1.074 0-1.82-.637-1.82-1.816V59.996c0-1.18.644-1.816 1.82-1.816h28.317c13.464 0 21.37 10.492 21.37 22.48 0 11.465-7.054 20.988-19.124 21.953.636 9.207 5.664 26.766 17.949 26.766 2.031 0 4.488-.535 6.41-1.711.969-.43 1.82-.43 2.352.64l.644.97c.426 1.07.317 1.816-.535 2.456-2.781 1.825-6.305 2.57-9.086 2.57zm-44.457-36.188h23.62c10.263 0 16.454-7.707 16.454-17.457 0-9.738-6.191-17.668-16.453-17.668H385.96v35.125zm69.824 35.008c-1.07 0-1.707-.637-1.707-1.816V59.996c0-1.18.637-1.816 1.707-1.816h1.39c.962 0 1.704.316 2.243 1.07l46.914 63.922V59.996c0-1.18.64-1.816 1.816-1.816h2.141c1.07 0 1.707.636 1.707 1.816v71.313c0 1.18-.637 1.816-1.707 1.816h-1.496a2.486 2.486 0 0 1-2.137-1.07l-47.023-64.028v63.282c0 1.07-.637 1.816-1.813 1.816zm0 0" fill="#fff"/><path d="M.41 113.277H0V76.723h.41l31.543-18.899L63.48 76.723h.418v36.554h-.418l-31.535 18.899zm20.348-11.914l10.984 6.575 10.988-6.575h.145V88.637h-.145l-10.988-6.575-10.984 6.575h-.153v12.726zm12.637-45.91h-.418V18.891h.418L64.93 0l31.535 18.89h.41v36.563h-.41L64.922 74.348zm20.332-11.918l10.988 6.582 10.984-6.582h.153V30.813h-.145l-10.98-6.575-10.993 6.575h-.144v12.73h.144zM33.395 171.11h-.418v-36.562h.418l31.535-18.895 31.535 18.895h.41v36.562h-.41L64.918 190l-31.531-18.89zm20.332-11.922l10.988 6.575 10.984-6.575h.153v-12.73h-.145l-10.988-6.574-10.985 6.582h-.144v12.722h.144zm46.652 11.922h-.414v-36.562h.414l31.539-18.895 31.535 18.895h.414v36.562h-.414L131.914 190zm20.344-11.922l10.988 6.575 10.984-6.575h.145v-12.73h-.145l-10.984-6.574-10.988 6.582h-.145v12.722zm0 0" fill="#4ad2a9"/><path d="M87.266 101.363h-.145V88.637h.145l10.988-6.575 10.984 6.575h.145v12.726h-.145l-10.984 6.575zm0 0" fill="#7b46b2"/><path d="M100.379 55.453h-.414V18.891h.414L131.918 0l31.535 18.89h.414v36.563h-.414l-31.539 18.895zm20.547-11.918l10.992 6.582 10.988-6.582h.137V30.813h-.137l-10.988-6.575-10.996 6.575h-.14v12.73h.14zm0 0" fill="#4ad2a9"/></g></svg>