<svg width="26" height="30" xmlns="http://www.w3.org/2000/svg"><g fill="none" fill-rule="evenodd"><path d="M.065 17.886H0v-5.772h.065l4.99-2.984 4.988 2.984h.066v5.772h-.066L5.054 20.87.065 17.886zm3.219-1.881l1.738 1.038 1.738-1.038h.023v-2.01H6.76l-1.738-1.038-1.738 1.038H3.26v2.01h.023zm1.999-7.249h-.066V2.983h.066L10.272 0l4.989 2.983h.065v5.773h-.065l-4.99 2.983-4.988-2.983zM8.5 6.874l1.738 1.039 1.738-1.039H12V4.865h-.023L10.24 3.827 8.501 4.865h-.023v2.01h.023zM5.283 27.017h-.066v-5.773h.066l4.989-2.983 4.989 2.983h.065v5.773h-.065L10.27 30l-4.988-2.983zM8.5 25.135l1.738 1.038 1.738-1.038H12v-2.01h-.023l-1.738-1.038-1.738 1.039h-.023v2.009h.023zm7.38 1.882h-.065v-5.773h.065l4.99-2.983 4.989 2.983h.065v5.773h-.065L20.869 30l-4.989-2.983zm3.219-1.882l1.738 1.038 1.738-1.038h.023v-2.01h-.023l-1.738-1.038-1.738 1.039h-.023v2.009h.023z" fill="#4AD2A9"/><path fill="#7B46B2" d="M13.806 16.005h-.023v-2.01h.023l1.738-1.038 1.738 1.038h.023v2.01h-.023l-1.738 1.038z"/><path d="M15.88 8.756h-.065V2.983h.065L20.87 0l4.989 2.983h.065v5.773h-.065l-4.99 2.983-4.989-2.983zm3.251-1.882l1.739 1.039 1.738-1.039h.022V4.865h-.022L20.87 3.827l-1.74 1.038h-.022v2.01h.022z" fill="#4AD2A9"/></g></svg>