<svg width="81" height="30" xmlns="http://www.w3.org/2000/svg"><g fill="none" fill-rule="evenodd"><path d="M37.39 21.206c-4.023 0-6.39-2.806-6.39-6.103C31 11.806 33.367 9 37.39 9c1.556 0 2.688.44 3.618 1.082.152.101.186.22.102.389l-.102.186c-.084.169-.22.203-.372.101-.879-.575-1.91-.947-3.246-.947-3.465 0-5.477 2.418-5.477 5.292 0 2.874 2.012 5.292 5.477 5.292 1.336 0 2.367-.372 3.246-.947.153-.102.288-.068.372.101l.119.203c.067.152.05.27-.051.338-.98.677-2.08 1.116-3.686 1.116zm5.35-.186c-.204 0-.305-.118-.22-.321l4.547-11.293c.05-.152.17-.22.338-.22h.626c.152 0 .27.068.321.22l4.565 11.293c.067.203-.017.321-.22.321h-.355c-.152 0-.27-.067-.321-.22l-.98-2.417h-6.662l-.964 2.417c-.067.153-.169.22-.338.22h-.338zm1.927-3.398h6.103l-3.06-7.625-3.043 7.625zm11.012 3.398c-.17 0-.27-.101-.27-.287V9.473c0-.186.1-.287.27-.287H56c.17 0 .287.101.287.287v11.26c0 .186-.101.287-.287.287h-.321zm12.415.186c-2.688 0-3.533-3.398-3.651-4.97H61.06v4.497c0 .169-.101.287-.287.287h-.321c-.17 0-.288-.101-.288-.287V9.473c0-.186.102-.287.288-.287h4.48c2.13 0 3.381 1.657 3.381 3.55 0 1.81-1.116 3.314-3.026 3.466.101 1.454.896 4.226 2.84 4.226.321 0 .71-.084 1.014-.27.153-.068.288-.068.372.101l.102.153c.067.169.05.287-.085.388-.44.288-.997.406-1.437.406zm-7.033-5.714h3.737c1.623 0 2.603-1.217 2.603-2.756 0-1.538-.98-2.79-2.603-2.79H61.06v5.546zm11.046 5.528c-.169 0-.27-.101-.27-.287V9.473c0-.186.101-.287.27-.287h.22c.152 0 .27.05.355.169l7.422 10.093V9.473c0-.186.101-.287.287-.287h.339c.169 0 .27.101.27.287v11.26c0 .186-.101.287-.27.287h-.237a.395.395 0 0 1-.338-.169l-7.439-10.11v9.992c0 .169-.101.287-.287.287h-.322z" fill="#343A40"/><path d="M.065 17.886H0v-5.772h.065l4.99-2.984 4.988 2.984h.066v5.772h-.066L5.054 20.87.065 17.886zm3.219-1.881l1.738 1.038 1.738-1.038h.023v-2.01H6.76l-1.738-1.038-1.738 1.038H3.26v2.01h.023zm1.999-7.249h-.066V2.983h.066L10.272 0l4.989 2.983h.065v5.773h-.065l-4.99 2.983-4.988-2.983zM8.5 6.874l1.738 1.039 1.738-1.039H12V4.865h-.023L10.24 3.827 8.501 4.865h-.023v2.01h.023zM5.283 27.017h-.066v-5.773h.066l4.989-2.983 4.989 2.983h.065v5.773h-.065L10.27 30l-4.988-2.983zM8.5 25.135l1.738 1.038 1.738-1.038H12v-2.01h-.023l-1.738-1.038-1.738 1.039h-.023v2.009h.023zm7.38 1.882h-.065v-5.773h.065l4.99-2.983 4.989 2.983h.065v5.773h-.065L20.869 30l-4.989-2.983zm3.219-1.882l1.738 1.038 1.738-1.038h.023v-2.01h-.023l-1.738-1.038-1.738 1.039h-.023v2.009h.023z" fill="#4AD2A9"/><path fill="#7B46B2" d="M13.806 16.005h-.023v-2.01h.023l1.738-1.038 1.738 1.038h.023v2.01h-.023l-1.738 1.038z"/><path d="M15.88 8.756h-.065V2.983h.065L20.87 0l4.989 2.983h.065v5.773h-.065l-4.99 2.983-4.989-2.983zm3.251-1.882l1.739 1.039 1.738-1.039h.022V4.865h-.022L20.87 3.827l-1.74 1.038h-.022v2.01h.022z" fill="#4AD2A9"/></g></svg>