<?xml version="1.0" encoding="UTF-8"?>
<svg width="15px" height="7px" viewBox="0 0 15 7" version="1.1" xmlns="http://www.w3.org/2000/svg" xmlns:xlink="http://www.w3.org/1999/xlink">
    <!-- Generator: Sketch 48.2 (47327) - http://www.bohemiancoding.com/sketch -->
    <title>Icon</title>
    <desc>Created with Sketch.</desc>
    <defs></defs>
    <g id="Dashboard" stroke="none" stroke-width="1" fill="none" fill-rule="evenodd" transform="translate(-663.000000, -735.000000)">
        <g id="My-Card" transform="translate(567.000000, 527.000000)" fill="#000034">
            <g id="Group-11" transform="translate(96.000000, 207.000000)">
                <g id="Icon" transform="translate(0.000000, 1.000000)">
                    <path d="M1.20777688,4.28911655 C0.655525613,4.28911655 0.207765656,4.7368765 0.207765656,5.28933759 C0.207765656,5.84137904 0.655525613,6.289139 1.20777688,6.289139 C1.76023797,6.289139 2.20799793,5.84137904 2.20799793,5.28933759 C2.20799793,4.7368765 1.76023797,4.28911655 1.20777688,4.28911655" id="Fill-107"></path>
                    <path d="M13.2088138,0.288777895 C12.6563527,0.288777895 12.2085928,0.736537852 12.2085928,1.28899894 C12.2085928,2.08674185 12.0812309,2.28901017 11.2085815,2.28901017 C11.1731216,2.28901017 11.1437466,2.29278696 11.1168894,2.29824233 C10.6082811,2.34524244 10.2083605,2.76803359 10.2083605,3.28902139 C10.2083605,3.29699462 10.2106685,3.30412857 10.2108784,3.31189198 C10.2079409,4.08781341 10.0740745,4.28651475 9.21107696,4.28651475 C9.16785364,4.28651475 9.13323303,4.2917603 9.10322849,4.29973353 C8.60091484,4.3530283 8.20833805,4.77288194 8.20833805,5.28925366 C8.20833805,5.84150493 8.656098,6.28926489 9.20855909,6.28926489 C9.73584155,6.28926489 10.1632488,5.87969252 10.2012266,5.36206187 C10.2068917,5.34024039 10.2110882,5.31611087 10.2110882,5.28652598 C10.2110882,4.56599754 10.437486,4.29259959 11.188019,4.28714422 C11.1949431,4.28735404 11.2016574,4.28903262 11.2085815,4.28903262 C11.7385917,4.28903262 12.1680971,3.87547363 12.2020883,3.35385636 C12.2062847,3.33497239 12.2085928,3.31357056 12.2085928,3.28902139 C12.2085928,2.56072954 12.4389772,2.28901017 13.2088138,2.28901017 C13.7610651,2.28901017 14.208825,1.84104039 14.208825,1.28899894 C14.208825,0.736537852 13.7610651,0.288777895 13.2088138,0.288777895" id="Fill-108"></path>
                    <path d="M7.30184445,2.29847314 C7.27477742,2.29301777 7.24519253,2.28903115 7.20952281,2.28903115 C6.33666366,2.28903115 6.20930176,2.08676283 6.20930176,1.2888101 L6.20804283,1.29006903 C6.20804283,1.28964939 6.20825265,1.28922975 6.20825265,1.2888101 C6.20825265,0.736558834 5.76049269,0.288798877 5.2080316,0.288798877 C4.65578033,0.288798877 4.20802038,0.736558834 4.20802038,1.2888101 C4.20802038,1.29237708 4.20906949,1.2955244 4.20906949,1.29888155 C4.20802038,2.08802176 4.07793079,2.28903115 3.20905826,2.28903115 L3.2084288,2.28903115 L3.20800915,2.28903115 C3.20716987,2.28903115 3.2065404,2.28924097 3.20591093,2.28924097 C3.17212961,2.28945079 3.14401347,2.29301777 3.1184152,2.29805349 C2.60875778,2.34400449 2.20799793,2.76742511 2.20799793,3.28904237 C2.20799793,3.84150346 2.65554806,4.2890536 3.20800915,4.2890536 C3.73634072,4.2890536 4.16458724,3.87801248 4.20109625,3.35912289 C4.20592216,3.33856035 4.20927931,3.3161094 4.20927931,3.28904237 C4.20927931,2.56075052 4.43945394,2.28903115 5.20929053,2.28903115 L5.20908071,2.28882133 L5.20929053,2.28882133 L5.20929053,2.28903115 C5.97556015,2.28903115 6.20699372,2.5586523 6.20909194,3.27981021 C6.20909194,3.28295754 6.20825265,3.28589505 6.20825265,3.28904237 C6.20825265,3.84150346 6.65601261,4.2890536 7.20826387,4.2890536 C7.76072496,4.2890536 8.2082751,3.84150346 8.2082751,3.28904237 C8.2082751,2.76868404 7.80961347,2.34631253 7.30184445,2.29847314" id="Fill-109"></path>
                </g>
            </g>
        </g>
    </g>
</svg>