<svg width="15" height="7" xmlns="http://www.w3.org/2000/svg"><path d="M1.208 4.29a1 1 0 1 0 0 2 1 1 0 0 0 0-2M13.209.289a1 1 0 0 0-1 1c0 .798-.128 1-1 1a.45.45 0 0 0-.092.01.997.997 0 0 0-.909.99c0 .008.003.015.003.023-.003.776-.137.975-1 .975a.412.412 0 0 0-.108.013.997.997 0 0 0 .106 1.99c.527 0 .954-.41.992-.928a.292.292 0 0 0 .01-.075c0-.721.226-.994.977-1l.02.002c.53 0 .96-.414.994-.935a.298.298 0 0 0 .007-.065c0-.728.23-1 1-1a1 1 0 0 0 0-2M7.302 2.298a.455.455 0 0 0-.092-.009c-.873 0-1-.202-1-1l-.002.001a1 1 0 0 0-2 0l.001.01c-.001.789-.131.99-1 .99h-.003a.458.458 0 0 0-.088.01.997.997 0 0 0 .09 1.99.997.997 0 0 0 .993-.93.299.299 0 0 0 .008-.07c0-.728.23-1 1-1 .767 0 .998.27 1 .99v.01a1 1 0 1 0 2 0 .996.996 0 0 0-.907-.99" fill="#000034" fill-rule="evenodd"/></svg>