<?xml version="1.0" encoding="UTF-8"?>
<svg width="14px" height="6px" viewBox="0 0 14 6" version="1.1" xmlns="http://www.w3.org/2000/svg" xmlns:xlink="http://www.w3.org/1999/xlink">
    <!-- Generator: Sketch 48.2 (47327) - http://www.bohemiancoding.com/sketch -->
    <title>nano-icon</title>
    <desc>Created with Sketch.</desc>
    <defs></defs>
    <g id="Account" stroke="none" stroke-width="1" fill="none" fill-rule="evenodd" transform="translate(-663.000000, -221.000000)">
        <g id="My-Card" transform="translate(567.000000, 179.000000)" fill="#000034">
            <g id="Group-11" transform="translate(96.000000, 41.000000)">
                <g id="nano-icon" transform="translate(0.000000, 1.000000)">
                    <path d="M0.999895101,4 C0.447707962,4 0,4.44775493 0,5.00020982 C0,5.55224507 0.447707962,6 0.999895101,6 C1.55229204,6 2,5.55224507 2,5.00020982 C2,4.44775493 1.55229204,4 0.999895101,4" id="Fill-107"></path>
                    <path d="M13.0000699,0 C12.4476537,0 11.9999301,0.447723617 11.9999301,1.00013987 C11.9999301,1.79781803 11.8725785,2.00006993 11,2.00006993 C10.964543,2.00006993 10.9351703,2.00384642 10.9083153,2.00930135 C10.3997482,2.05629764 9.99986013,2.47905448 9.99986013,3 C9.99986013,3.00797259 10.002168,3.01510595 10.0023778,3.02286873 C9.99944052,3.79872718 9.86558501,3.99741241 9.00265753,3.99741241 C8.95943772,3.99741241 8.92481992,4.00265753 8.89481782,4.01063011 C8.39254493,4.06392055 8,4.48374012 8,5.00006993 C8,5.55227638 8.44772362,6 9.00013987,6 C9.52737954,6 9.95475208,5.59046087 9.99272676,5.07287223 C9.9983915,5.05105252 10.0025876,5.02692496 10.0025876,4.99734247 C10.0025876,4.27687251 10.2289671,4.00349675 10.9794391,3.99804182 C10.9863627,3.99825163 10.9930764,3.99993007 11,3.99993007 C11.5299671,3.99993007 11.9594377,3.58640464 11.9934261,3.06482971 C11.9976222,3.04594727 11.9999301,3.02454717 11.9999301,3 C11.9999301,2.27176726 12.2302958,2.00006993 13.0000699,2.00006993 C13.5522764,2.00006993 14,1.55213651 14,1.00013987 C14,0.447723617 13.5522764,0 13.0000699,0" id="Fill-108"></path>
                    <path d="M7.09361122,2.00954629 C7.06654544,2.00409127 7.03696192,2.0001049 7.00129384,2.0001049 C6.12847501,2.0001049 6.001119,1.79784946 6.001119,0.999947548 L5.99986013,1.0012064 C5.99986013,1.00078678 6.00006994,1.00036716 6.00006994,0.999947548 C6.00006994,0.447731445 5.55233066,0 4.99989509,0 C4.44766934,0 3.99993006,0.447731445 3.99993006,0.999947548 C3.99993006,1.00351429 4.00097912,1.00666142 4.00097912,1.01001836 C3.99993006,1.79910831 3.86984649,2.0001049 3.00101409,2.0001049 L3.00038466,2.0001049 L2.99996503,2.0001049 C2.99912578,2.0001049 2.99849635,2.00031471 2.99786691,2.00031471 C2.96408714,2.00052452 2.9359723,2.00409127 2.91037521,2.00912667 C2.40074134,2.05507474 2,2.4784684 2,3.00005245 C2,3.55247836 2.44752946,4 2.99996503,4 C3.5282722,4 3.95649893,3.58898505 3.99300626,3.07012851 C3.99783194,3.04956727 4.00118894,3.02711776 4.00118894,3.00005245 C4.00118894,2.27180698 4.23135294,2.0001049 5.00115397,2.0001049 L5.00094415,1.9998951 L5.00115397,1.9998951 L5.00115397,2.0001049 C5.76738819,2.0001049 5.99881106,2.26970889 6.00090919,2.99082088 C6.00090919,2.993968 6.00006994,2.99690532 6.00006994,3.00005245 C6.00006994,3.55247836 6.44780921,4 7.00003497,4 C7.55247054,4 8,3.55247836 8,3.00005245 C8,2.47972725 7.60135679,2.05738264 7.09361122,2.00954629" id="Fill-109"></path>
                </g>
            </g>
        </g>
    </g>
</svg>