<?xml version="1.0" encoding="UTF-8"?>
<svg width="81px" height="30px" viewBox="0 0 81 30" version="1.1" xmlns="http://www.w3.org/2000/svg" xmlns:xlink="http://www.w3.org/1999/xlink">
    <!-- Generator: Sketch 48.2 (47327) - http://www.bohemiancoding.com/sketch -->
    <title>Cairn</title>
    <desc>Created with Sketch.</desc>
    <defs></defs>
    <g id="Page-1" stroke="none" stroke-width="1" fill="none" fill-rule="evenodd">
        <g id="Cairn">
            <path d="M37.3904494,21.2060965 C33.3668331,21.2060965 31,18.3997087 31,15.1030483 C31,11.8063878 33.3668331,9 37.3904494,9 C38.9457969,9 40.0784956,9.43955472 41.0083229,10.0819809 C41.1604765,10.1834166 41.1942884,10.3017582 41.1097586,10.4708177 L41.0083229,10.6567832 C40.9237932,10.8258427 40.7885456,10.8596546 40.636392,10.7582189 C39.7572826,10.1834166 38.7260196,9.81148564 37.3904494,9.81148564 C33.9247295,9.81148564 31.9129213,12.2290366 31.9129213,15.1030483 C31.9129213,17.9770599 33.9247295,20.3946109 37.3904494,20.3946109 C38.7260196,20.3946109 39.7572826,20.02268 40.636392,19.4478777 C40.7885456,19.3464419 40.9237932,19.3802538 41.0083229,19.5493134 L41.1266646,19.7521848 C41.1942884,19.9043383 41.1773824,20.02268 41.0759467,20.0903038 C40.0954016,20.7665418 38.9965148,21.2060965 37.3904494,21.2060965 Z M42.7392322,21.0201311 C42.5363608,21.0201311 42.4349251,20.9017894 42.5194548,20.698918 L47.0671556,9.40574282 C47.1178735,9.25358926 47.2362151,9.18596546 47.4052747,9.18596546 L48.0307948,9.18596546 C48.1829484,9.18596546 48.3012901,9.25358926 48.3520079,9.40574282 L52.9166146,20.698918 C52.9842384,20.9017894 52.8997087,21.0201311 52.6968373,21.0201311 L52.3418123,21.0201311 C52.1896588,21.0201311 52.0713171,20.9525073 52.0205992,20.8003537 L51.0400541,18.3828027 L44.3791094,18.3828027 L43.4154702,20.8003537 C43.3478464,20.9525073 43.2464107,21.0201311 43.0773512,21.0201311 L42.7392322,21.0201311 Z M44.6665106,17.622035 L50.7695589,17.622035 L47.7095818,9.9974511 L44.6665106,17.622035 Z M55.6787869,21.0201311 C55.5097274,21.0201311 55.4082917,20.9186954 55.4082917,20.7327299 L55.4082917,9.47336662 C55.4082917,9.28740117 55.5097274,9.18596546 55.6787869,9.18596546 L56,9.18596546 C56.1690595,9.18596546 56.2874012,9.28740117 56.2874012,9.47336662 L56.2874012,20.7327299 C56.2874012,20.9186954 56.1859655,21.0201311 56,21.0201311 L55.6787869,21.0201311 Z M68.0942572,21.2060965 C65.406211,21.2060965 64.5609134,17.8080004 64.4425718,16.235747 L61.0613816,16.235747 L61.0613816,20.7327299 C61.0613816,20.9017894 60.9599459,21.0201311 60.7739804,21.0201311 L60.4527674,21.0201311 C60.2837079,21.0201311 60.1653662,20.9186954 60.1653662,20.7327299 L60.1653662,9.47336662 C60.1653662,9.28740117 60.2668019,9.18596546 60.4527674,9.18596546 L64.9328444,9.18596546 C67.0629942,9.18596546 68.3140345,10.8427486 68.3140345,12.7362151 C68.3140345,14.5451519 67.1982418,16.0497815 65.2878693,16.2019351 C65.389305,17.6558469 66.1838847,20.4284228 68.1280691,20.4284228 C68.4492821,20.4284228 68.838119,20.343893 69.1424261,20.1579276 C69.2945797,20.0903038 69.4298273,20.0903038 69.5143571,20.2593633 L69.6157928,20.4115169 C69.6834166,20.5805764 69.6665106,20.698918 69.531263,20.8003537 C69.0917083,21.0877549 68.5338119,21.2060965 68.0942572,21.2060965 Z M61.0613816,15.4918851 L64.7975968,15.4918851 C66.420568,15.4918851 67.4011132,14.2746567 67.4011132,12.7362151 C67.4011132,11.1977736 66.420568,9.94673325 64.7975968,9.94673325 L61.0613816,9.94673325 L61.0613816,15.4918851 Z M72.1074698,21.0201311 C71.9384103,21.0201311 71.8369746,20.9186954 71.8369746,20.7327299 L71.8369746,9.47336662 C71.8369746,9.28740117 71.9384103,9.18596546 72.1074698,9.18596546 L72.3272472,9.18596546 C72.4794008,9.18596546 72.5977424,9.23668331 72.6822722,9.35502497 L80.1039846,19.4478777 L80.1039846,9.47336662 C80.1039846,9.28740117 80.2054203,9.18596546 80.3913858,9.18596546 L80.7295048,9.18596546 C80.8985643,9.18596546 81,9.28740117 81,9.47336662 L81,20.7327299 C81,20.9186954 80.8985643,21.0201311 80.7295048,21.0201311 L80.4928215,21.0201311 C80.3575739,21.0201311 80.2392322,20.9694132 80.1547025,20.8510716 L72.7160841,10.7413129 L72.7160841,20.7327299 C72.7160841,20.9017894 72.6146484,21.0201311 72.4286829,21.0201311 L72.1074698,21.0201311 Z" id="CAIRN" fill="#343A40"></path>
            <g id="Icon">
                <path d="M0.0652173913,17.8861398 L0,17.8861398 L0,12.1138602 L0.0652173913,12.1138602 L5.05434783,9.13043478 L10.0434783,12.1138602 L10.1086957,12.1138602 L10.1086957,17.8861398 L10.0434783,17.8861398 L5.05434783,20.8695652 L0.0652173913,17.8861398 Z M3.28359046,16.004568 L5.02173913,17.0429978 L6.7598878,16.004568 L6.7826087,16.004568 L6.7826087,13.995432 L6.7598878,13.995432 L5.02173913,12.9570022 L3.28359046,13.995432 L3.26086957,13.995432 L3.26086957,16.004568 L3.28359046,16.004568 Z" id="Combined-Shape" fill="#4AD2A9"></path>
                <path d="M5.2826087,8.75570502 L5.2173913,8.75570502 L5.2173913,2.98342541 L5.2826087,2.98342541 L10.2717391,0 L15.2608696,2.98342541 L15.326087,2.98342541 L15.326087,8.75570502 L15.2608696,8.75570502 L10.2717391,11.7391304 L5.2826087,8.75570502 Z M8.50098177,6.87413322 L10.2391304,7.91256306 L11.9772791,6.87413322 L12,6.87413322 L12,4.86499722 L11.9772791,4.86499722 L10.2391304,3.82656738 L8.50098177,4.86499722 L8.47826087,4.86499722 L8.47826087,6.87413322 L8.50098177,6.87413322 Z" id="Combined-Shape" fill="#4AD2A9"></path>
                <path d="M5.2826087,27.0165746 L5.2173913,27.0165746 L5.2173913,21.244295 L5.2826087,21.244295 L10.2717391,18.2608696 L15.2608696,21.244295 L15.326087,21.244295 L15.326087,27.0165746 L15.2608696,27.0165746 L10.2717391,30 L5.2826087,27.0165746 Z M8.50098177,25.1350028 L10.2391304,26.1734326 L11.9772791,25.1350028 L12,25.1350028 L12,23.1258668 L11.9772791,23.1258668 L10.2391304,22.0874369 L8.50098177,23.1258668 L8.47826087,23.1258668 L8.47826087,25.1350028 L8.50098177,25.1350028 Z" id="Combined-Shape" fill="#4AD2A9"></path>
                <path d="M15.8804348,27.0165746 L15.8152174,27.0165746 L15.8152174,21.244295 L15.8804348,21.244295 L20.8695652,18.2608696 L25.8586957,21.244295 L25.923913,21.244295 L25.923913,27.0165746 L25.8586957,27.0165746 L20.8695652,30 L15.8804348,27.0165746 Z M19.0988079,25.1350028 L20.8369565,26.1734326 L22.5751052,25.1350028 L22.5978261,25.1350028 L22.5978261,23.1258668 L22.5751052,23.1258668 L20.8369565,22.0874369 L19.0988079,23.1258668 L19.076087,23.1258668 L19.076087,25.1350028 L19.0988079,25.1350028 Z" id="Combined-Shape" fill="#4AD2A9"></path>
                <polygon id="Combined-Shape" fill="#7B46B2" points="13.8061124 16.004568 13.7833915 16.004568 13.7833915 13.995432 13.8061124 13.995432 15.5442611 12.9570022 17.2824098 13.995432 17.3051307 13.995432 17.3051307 16.004568 17.2824098 16.004568 15.5442611 17.0429978"></polygon>
                <path d="M15.8804348,8.75570502 L15.8152174,8.75570502 L15.8152174,2.98342541 L15.8804348,2.98342541 L20.8695652,0 L25.8586957,2.98342541 L25.923913,2.98342541 L25.923913,8.75570502 L25.8586957,8.75570502 L20.8695652,11.7391304 L15.8804348,8.75570502 Z M19.1314086,6.87413322 L20.8695573,7.91256306 L22.6077059,6.87413322 L22.6304268,6.87413322 L22.6304268,4.86499722 L22.6077059,4.86499722 L20.8695573,3.82656738 L19.1314086,4.86499722 L19.1086877,4.86499722 L19.1086877,6.87413322 L19.1314086,6.87413322 Z" id="Combined-Shape" fill="#4AD2A9"></path>
            </g>
        </g>
    </g>
</svg>