<?xml version="1.0" encoding="UTF-8"?>
<svg width="91px" height="40px" viewBox="0 0 91 40" version="1.1" xmlns="http://www.w3.org/2000/svg" xmlns:xlink="http://www.w3.org/1999/xlink">
    <!-- Generator: Sketch 48.2 (47327) - http://www.bohemiancoding.com/sketch -->
    <title>Cairn-white</title>
    <desc>Created with Sketch.</desc>
    <defs></defs>
    <g id="Page-1" stroke="none" stroke-width="1" fill="none" fill-rule="evenodd">
        <g id="Cairn-white">
            <path d="M47.3904494,26.2060965 C43.3668331,26.2060965 41,23.3997087 41,20.1030483 C41,16.8063878 43.3668331,14 47.3904494,14 C48.9457969,14 50.0784956,14.4395547 51.0083229,15.0819809 C51.1604765,15.1834166 51.1942884,15.3017582 51.1097586,15.4708177 L51.0083229,15.6567832 C50.9237932,15.8258427 50.7885456,15.8596546 50.636392,15.7582189 C49.7572826,15.1834166 48.7260196,14.8114856 47.3904494,14.8114856 C43.9247295,14.8114856 41.9129213,17.2290366 41.9129213,20.1030483 C41.9129213,22.9770599 43.9247295,25.3946109 47.3904494,25.3946109 C48.7260196,25.3946109 49.7572826,25.02268 50.636392,24.4478777 C50.7885456,24.3464419 50.9237932,24.3802538 51.0083229,24.5493134 L51.1266646,24.7521848 C51.1942884,24.9043383 51.1773824,25.02268 51.0759467,25.0903038 C50.0954016,25.7665418 48.9965148,26.2060965 47.3904494,26.2060965 Z M52.7392322,26.0201311 C52.5363608,26.0201311 52.4349251,25.9017894 52.5194548,25.698918 L57.0671556,14.4057428 C57.1178735,14.2535893 57.2362151,14.1859655 57.4052747,14.1859655 L58.0307948,14.1859655 C58.1829484,14.1859655 58.3012901,14.2535893 58.3520079,14.4057428 L62.9166146,25.698918 C62.9842384,25.9017894 62.8997087,26.0201311 62.6968373,26.0201311 L62.3418123,26.0201311 C62.1896588,26.0201311 62.0713171,25.9525073 62.0205992,25.8003537 L61.0400541,23.3828027 L54.3791094,23.3828027 L53.4154702,25.8003537 C53.3478464,25.9525073 53.2464107,26.0201311 53.0773512,26.0201311 L52.7392322,26.0201311 Z M54.6665106,22.622035 L60.7695589,22.622035 L57.7095818,14.9974511 L54.6665106,22.622035 Z M65.6787869,26.0201311 C65.5097274,26.0201311 65.4082917,25.9186954 65.4082917,25.7327299 L65.4082917,14.4733666 C65.4082917,14.2874012 65.5097274,14.1859655 65.6787869,14.1859655 L66,14.1859655 C66.1690595,14.1859655 66.2874012,14.2874012 66.2874012,14.4733666 L66.2874012,25.7327299 C66.2874012,25.9186954 66.1859655,26.0201311 66,26.0201311 L65.6787869,26.0201311 Z M78.0942572,26.2060965 C75.406211,26.2060965 74.5609134,22.8080004 74.4425718,21.235747 L71.0613816,21.235747 L71.0613816,25.7327299 C71.0613816,25.9017894 70.9599459,26.0201311 70.7739804,26.0201311 L70.4527674,26.0201311 C70.2837079,26.0201311 70.1653662,25.9186954 70.1653662,25.7327299 L70.1653662,14.4733666 C70.1653662,14.2874012 70.2668019,14.1859655 70.4527674,14.1859655 L74.9328444,14.1859655 C77.0629942,14.1859655 78.3140345,15.8427486 78.3140345,17.7362151 C78.3140345,19.5451519 77.1982418,21.0497815 75.2878693,21.2019351 C75.389305,22.6558469 76.1838847,25.4284228 78.1280691,25.4284228 C78.4492821,25.4284228 78.838119,25.343893 79.1424261,25.1579276 C79.2945797,25.0903038 79.4298273,25.0903038 79.5143571,25.2593633 L79.6157928,25.4115169 C79.6834166,25.5805764 79.6665106,25.698918 79.531263,25.8003537 C79.0917083,26.0877549 78.5338119,26.2060965 78.0942572,26.2060965 Z M71.0613816,20.4918851 L74.7975968,20.4918851 C76.420568,20.4918851 77.4011132,19.2746567 77.4011132,17.7362151 C77.4011132,16.1977736 76.420568,14.9467332 74.7975968,14.9467332 L71.0613816,14.9467332 L71.0613816,20.4918851 Z M82.1074698,26.0201311 C81.9384103,26.0201311 81.8369746,25.9186954 81.8369746,25.7327299 L81.8369746,14.4733666 C81.8369746,14.2874012 81.9384103,14.1859655 82.1074698,14.1859655 L82.3272472,14.1859655 C82.4794008,14.1859655 82.5977424,14.2366833 82.6822722,14.355025 L90.1039846,24.4478777 L90.1039846,14.4733666 C90.1039846,14.2874012 90.2054203,14.1859655 90.3913858,14.1859655 L90.7295048,14.1859655 C90.8985643,14.1859655 91,14.2874012 91,14.4733666 L91,25.7327299 C91,25.9186954 90.8985643,26.0201311 90.7295048,26.0201311 L90.4928215,26.0201311 C90.3575739,26.0201311 90.2392322,25.9694132 90.1547025,25.8510716 L82.7160841,15.7413129 L82.7160841,25.7327299 C82.7160841,25.9017894 82.6146484,26.0201311 82.4286829,26.0201311 L82.1074698,26.0201311 Z" id="CAIRN" fill="#FFFFFF"></path>
            <g id="Icon">
                <path d="M0.0869565217,23.8481864 L0,23.8481864 L0,16.1518136 L0.0869565217,16.1518136 L6.73913043,12.173913 L13.3913043,16.1518136 L13.4782609,16.1518136 L13.4782609,23.8481864 L13.3913043,23.8481864 L6.73913043,27.826087 L0.0869565217,23.8481864 Z M4.37812062,21.339424 L6.69565217,22.7239971 L9.01318373,21.339424 L9.04347826,21.339424 L9.04347826,18.660576 L9.01318373,18.660576 L6.69565217,17.2760029 L4.37812062,18.660576 L4.34782609,18.660576 L4.34782609,21.339424 L4.37812062,21.339424 Z" id="Combined-Shape" fill="#4AD2A9"></path>
                <path d="M7.04347826,11.6742734 L6.95652174,11.6742734 L6.95652174,3.97790055 L7.04347826,3.97790055 L13.6956522,0 L20.3478261,3.97790055 L20.4347826,3.97790055 L20.4347826,11.6742734 L20.3478261,11.6742734 L13.6956522,15.6521739 L7.04347826,11.6742734 Z M11.3346424,9.16551095 L13.6521739,10.5500841 L15.9697055,9.16551095 L16,9.16551095 L16,6.48666296 L15.9697055,6.48666296 L13.6521739,5.10208984 L11.3346424,6.48666296 L11.3043478,6.48666296 L11.3043478,9.16551095 L11.3346424,9.16551095 Z" id="Combined-Shape" fill="#4AD2A9"></path>
                <path d="M7.04347826,36.0220994 L6.95652174,36.0220994 L6.95652174,28.3257266 L7.04347826,28.3257266 L13.6956522,24.3478261 L20.3478261,28.3257266 L20.4347826,28.3257266 L20.4347826,36.0220994 L20.3478261,36.0220994 L13.6956522,40 L7.04347826,36.0220994 Z M11.3346424,33.513337 L13.6521739,34.8979102 L15.9697055,33.513337 L16,33.513337 L16,30.834489 L15.9697055,30.834489 L13.6521739,29.4499159 L11.3346424,30.834489 L11.3043478,30.834489 L11.3043478,33.513337 L11.3346424,33.513337 Z" id="Combined-Shape" fill="#4AD2A9"></path>
                <path d="M21.173913,36.0220994 L21.0869565,36.0220994 L21.0869565,28.3257266 L21.173913,28.3257266 L27.826087,24.3478261 L34.4782609,28.3257266 L34.5652174,28.3257266 L34.5652174,36.0220994 L34.4782609,36.0220994 L27.826087,40 L21.173913,36.0220994 Z M25.4650771,33.513337 L27.7826087,34.8979102 L30.1001403,33.513337 L30.1304348,33.513337 L30.1304348,30.834489 L30.1001403,30.834489 L27.7826087,29.4499159 L25.4650771,30.834489 L25.4347826,30.834489 L25.4347826,33.513337 L25.4650771,33.513337 Z" id="Combined-Shape" fill="#4AD2A9"></path>
                <polygon id="Combined-Shape" fill="#61358F" points="18.4081499 21.339424 18.3778554 21.339424 18.3778554 18.660576 18.4081499 18.660576 20.7256815 17.2760029 23.043213 18.660576 23.0735076 18.660576 23.0735076 21.339424 23.043213 21.339424 20.7256815 22.7239971"></polygon>
                <path d="M21.173913,11.6742734 L21.0869565,11.6742734 L21.0869565,3.97790055 L21.173913,3.97790055 L27.826087,0 L34.4782609,3.97790055 L34.5652174,3.97790055 L34.5652174,11.6742734 L34.4782609,11.6742734 L27.826087,15.6521739 L21.173913,11.6742734 Z M25.5085448,9.16551095 L27.8260763,10.5500841 L30.1436079,9.16551095 L30.1739024,9.16551095 L30.1739024,6.48666296 L30.1436079,6.48666296 L27.8260763,5.10208984 L25.5085448,6.48666296 L25.4782503,6.48666296 L25.4782503,9.16551095 L25.5085448,9.16551095 Z" id="Combined-Shape" fill="#4AD2A9"></path>
            </g>
        </g>
    </g>
</svg>