<svg id="Layer_1" data-name="Layer 1" xmlns="http://www.w3.org/2000/svg" viewBox="0 0 533 522"><title>Artboard 23 copy</title><path d="M266.5,5.25C125.25,5.25,10.75,119.75,10.75,261S125.25,516.75,266.5,516.75,522.25,402.25,522.25,261,407.75,5.25,266.5,5.25ZM420,414.47A215.62,215.62,0,0,1,266.5,478a218.08,218.08,0,0,1-58.67-8V270.2l36.39,81.55h39l36.39-81.55v99.09H372V188.4H308.47l-44.64,94.45-44.9-94.45H155.44V447.58A218.47,218.47,0,0,1,113,414.47,217,217,0,1,1,420,107.53a217,217,0,0,1,0,306.94Z" style="fill:#f9b214"/><circle cx="345.3" cy="144.41" r="25.81" style="fill:#f9b214"/></svg>