<svg width="503" height="503" xmlns="http://www.w3.org/2000/svg"><g fill="none" fill-rule="evenodd"><path d="M251.576 502.685C112.824 502.685.35 390.21.35 251.463.35 112.711 112.824.236 251.576.236c138.746 0 251.222 112.475 251.222 251.227 0 138.747-112.476 251.222-251.222 251.222" fill="#4A90E2"/><path d="M251.67 230.924c-.028 0-.045-.006-.073-.006-17.926 0-20.543-4.147-20.543-20.537l-.023.023v-.023c0-11.344-9.193-20.548-20.537-20.548-11.343 0-20.548 9.204-20.548 20.548 0 .12.017.245.023.37-.046 16.065-2.753 20.167-20.537 20.167h-.023c-11.343 0-20.542 9.199-20.542 20.543 0 11.343 9.199 20.542 20.542 20.542 11.133 0 20.173-8.863 20.514-19.917.012-.204.046-.392.046-.625 0-14.962 4.733-20.543 20.548-20.543 15.684 0 20.457 5.513 20.531 20.224 0 .102-.017.21-.017.319 0 11.343 9.2 20.542 20.543 20.542 11.35 0 20.542-9.199 20.542-20.542 0-11.316-9.147-20.486-20.445-20.537m123.147-41.091c-11.344 0-20.537 9.204-20.537 20.548 0 16.39-2.617 20.537-20.542 20.537-11.344 0-20.543 9.199-20.543 20.543 0 .29.034.568.045.859-.102 15.604-2.952 19.626-20.53 19.626-.627 0-1.161.057-1.65.137-10.593.819-18.945 9.66-18.945 20.463 0 11.343 9.194 20.537 20.543 20.537 10.928 0 19.843-8.545 20.48-19.32.068-.375.114-.796.114-1.274 0-14.706 4.602-20.338 19.78-20.52.239.006.467.034.706.034 11.349 0 20.542-9.199 20.542-20.542v-.006c0-14.956 4.733-20.537 20.537-20.537 11.35 0 20.548-9.193 20.548-20.537s-9.199-20.548-20.548-20.548m-246.494 82.17c-11.344 0-20.542 9.2-20.542 20.543s9.198 20.537 20.542 20.537c11.35 0 20.543-9.194 20.543-20.537 0-11.344-9.194-20.543-20.543-20.543" fill="#FFF"/></g></svg>